<svg width="16" height="11" viewBox="0 0 16 11" fill="none" xmlns="http://www.w3.org/2000/svg">
<path d="M15 0H1C0.448 0 0 0.448 0 1V10C0 10.552 0.448 11 1 11H15C15.552 11 16 10.552 16 10V1C16 0.448 15.552 0 15 0ZM1 1H15V10H1V1ZM13.583 5H7.5C7.224 5 7 5.224 7 5.5C7 5.776 7.224 6 7.5 6H13.583C13.859 6 14.083 5.776 14.083 5.5C14.083 5.224 13.859 5 13.583 5ZM13.583 7H7.5C7.224 7 7 7.224 7 7.5C7 7.776 7.224 8 7.5 8H13.583C13.859 8 14.083 7.776 14.083 7.5C14.083 7.224 13.859 7 13.583 7ZM13.583 3H7.5C7.224 3 7 3.224 7 3.5C7 3.776 7.224 4 7.5 4H13.583C13.859 4 14.083 3.776 14.083 3.5C14.083 3.224 13.859 3 13.583 3ZM2.79 3.208C2.79 3.52838 2.91727 3.83564 3.14382 4.06218C3.37036 4.28873 3.67762 4.416 3.998 4.416C4.31838 4.416 4.62564 4.28873 4.85218 4.06218C5.07873 3.83564 5.206 3.52838 5.206 3.208C5.206 2.88762 5.07873 2.58036 4.85218 2.35382C4.62564 2.12727 4.31838 2 3.998 2C3.67762 2 3.37036 2.12727 3.14382 2.35382C2.91727 2.58036 2.79 2.88762 2.79 3.208ZM4.024 4.899C2.932 4.899 2.048 6.085 2.048 7.549C2.048 9.013 6 9.012 6 7.549C6 6.086 5.115 4.899 4.024 4.899Z" fill="#2A303E"/>
</svg>
