<svg width="14" height="14" viewBox="0 0 14 14" fill="none" xmlns="http://www.w3.org/2000/svg">
<path fill-rule="evenodd" clip-rule="evenodd" d="M0.333374 7.00016C0.333374 3.32016 3.32004 0.333496 7.00004 0.333496C10.68 0.333496 13.6667 3.32016 13.6667 7.00016C13.6667 10.6802 10.68 13.6668 7.00004 13.6668C3.32004 13.6668 0.333374 10.6802 0.333374 7.00016ZM7.66671 9.66683V11.0002H6.33337V9.66683H7.66671ZM7.00004 12.3335C4.06004 12.3335 1.66671 9.94016 1.66671 7.00016C1.66671 4.06016 4.06004 1.66683 7.00004 1.66683C9.94004 1.66683 12.3334 4.06016 12.3334 7.00016C12.3334 9.94016 9.94004 12.3335 7.00004 12.3335ZM4.33337 5.66683C4.33337 4.1935 5.52671 3.00016 7.00004 3.00016C8.47337 3.00016 9.66671 4.1935 9.66671 5.66683C9.66671 6.52211 9.14003 6.98238 8.62722 7.43052C8.14072 7.85567 7.66671 8.26991 7.66671 9.00016H6.33337C6.33337 7.78598 6.96145 7.30455 7.51367 6.88128C7.94686 6.54923 8.33337 6.25297 8.33337 5.66683C8.33337 4.9335 7.73337 4.3335 7.00004 4.3335C6.26671 4.3335 5.66671 4.9335 5.66671 5.66683H4.33337Z" fill="white"/>
</svg>
