<svg width="25" height="34" viewBox="0 0 25 34" fill="none" xmlns="http://www.w3.org/2000/svg">
<path d="M6.63096 19.0697V13.175L0 15.693V21.5851L6.63096 19.0697Z" fill="#E53935"/>
<path d="M18.4879 14.8973L16.345 15.7028C15.6307 15.9764 15.2402 16.4223 15.2402 16.9897V22.0737C15.3205 22.0083 15.4096 21.9562 15.5045 21.9192L24.995 18.312V12.4072L18.4879 14.8973Z" fill="#E53935"/>
<path d="M6.63096 25.2733V19.3787L0 21.8966V27.7912L6.63096 25.2733Z" fill="#E53935"/>
<path d="M18.292 23.6749C18.292 23.4215 18.1372 23.2847 17.8158 23.2847H15.6396C15.551 23.2921 15.4619 23.2798 15.378 23.2486C15.2941 23.2173 15.2172 23.1679 15.1523 23.1033C15.0873 23.0387 15.0357 22.9605 15.0007 22.8735C14.9658 22.7866 14.9482 22.6928 14.9491 22.5983V19.3052L10.1539 21.162L8.01101 21.965C7.29673 22.2411 6.90625 22.6869 6.90625 23.2543V28.3206C6.98681 28.2557 7.07584 28.2037 7.17054 28.1661L17.9682 24.0675C18.292 23.9231 18.292 23.7306 18.292 23.6673" fill="#E53935"/>
<path d="M6.90625 22.4082C7.17008 22.0682 7.52193 21.8181 7.91816 21.6888L10.061 20.8858L14.9682 19.0062V13.1243L10.1539 14.9583L8.01101 15.7613C7.29673 16.0374 6.90625 16.4807 6.90625 17.0506V22.4082Z" fill="#E53935"/>
<path d="M9.6405 30.3498C9.96192 30.2079 9.96193 30.0154 9.96193 29.9521C9.96193 29.6988 9.80716 29.5595 9.48573 29.5595H7.32144C7.23282 29.5669 7.14373 29.5545 7.05983 29.5233C6.97593 29.492 6.89906 29.4426 6.83411 29.378C6.76916 29.3134 6.71756 29.2352 6.68259 29.1482C6.64761 29.0613 6.63003 28.9675 6.63097 28.873V25.585L0 28.1029V34.0001L9.6405 30.3498Z" fill="#E53935"/>
<path d="M7.2634 28.4498C7.13007 28.5005 6.90626 28.622 6.90626 28.8627C6.90586 28.9186 6.91668 28.9739 6.93799 29.025C6.9593 29.076 6.9906 29.1217 7.02982 29.1588C7.06904 29.196 7.11526 29.2238 7.16539 29.2405C7.21553 29.2571 7.26842 29.2622 7.32055 29.2553H9.49674C9.60856 29.247 9.72072 29.2654 9.82496 29.3092C9.92921 29.3531 10.0229 29.4212 10.0991 29.5086V27.3757L7.2634 28.4498Z" fill="#E53935"/>
<path d="M16.1062 3.36908C15.8404 3.46415 15.611 3.64894 15.4528 3.89537C15.2947 4.1418 15.2164 4.43641 15.23 4.73445V9.92739C15.4958 9.58911 15.8482 9.34009 16.2443 9.21052L18.3872 8.40751L24.9943 5.8921V0L16.1062 3.36908Z" fill="#E53935"/>
<path d="M7.77433 9.6386C7.50824 9.73246 7.27843 9.91659 7.12016 10.1628C6.96189 10.4089 6.8839 10.7036 6.89814 11.0014V16.1969C7.16197 15.8569 7.51382 15.6067 7.91005 15.4775L10.0529 14.6745L14.9601 12.8025V6.9104L7.77433 9.6386Z" fill="#E53935"/>
<path d="M15.5959 22.1854C15.4625 22.236 15.2363 22.3576 15.2363 22.5983C15.2363 22.6543 15.2474 22.7096 15.269 22.7607C15.2906 22.8118 15.3221 22.8574 15.3615 22.8945C15.4009 22.9316 15.4472 22.9594 15.4975 22.9761C15.5478 22.9927 15.6008 22.9977 15.653 22.9909H17.8292C17.941 22.9826 18.0532 23.001 18.1574 23.0448C18.2617 23.0887 18.3553 23.1568 18.4316 23.2442V21.1113L15.5959 22.1854Z" fill="#E53935"/>
<path d="M18.4879 8.68381L16.345 9.48681C15.6307 9.76293 15.2402 10.2088 15.2402 10.7762V16.1338C15.5037 15.7939 15.8558 15.5445 16.2521 15.4169L18.395 14.6114L24.9998 12.096V6.20386L18.4879 8.68381Z" fill="#E53935"/>
</svg>
