<?xml version="1.0" encoding="UTF-8"?>
<svg width="14px" height="16px" viewBox="0 0 14 16" version="1.1" xmlns="http://www.w3.org/2000/svg" xmlns:xlink="http://www.w3.org/1999/xlink">
    <!-- Generator: Sketch 59.1 (86144) - https://sketch.com -->
    <title>icon-dock-black</title>
    <desc>Created with Sketch.</desc>
    <g id="Page-1" stroke="none" stroke-width="1" fill="none" fill-rule="evenodd">
        <g id="icon-dock-black" fill="#2A303E" fill-rule="nonzero">
            <path d="M11,1 L11,13 L1,13 L1,1 L11,1 Z M11,0 L1,0 C0.73478,0 0.48043,0.105357 0.29289,0.292893 C0.10536,0.48043 0,0.734784 0,1 L0,13 C0,13.2652 0.10536,13.5196 0.29289,13.7071 C0.48043,13.8946 0.73478,14 1,14 L11,14 C11.2652,14 11.5196,13.8946 11.7071,13.7071 C11.8946,13.5196 12,13.2652 12,13 L12,1 C12,0.734784 11.8946,0.48043 11.7071,0.292893 C11.5196,0.105357 11.2652,0 11,0 L11,0 Z" id="Shape"></path>
            <path d="M13,2 L12,2 L12,3 L13,3 L13,15 L3,15 L3,14 L2,14 L2,15 C2,15.2652 2.10536,15.5196 2.29289,15.7071 C2.48043,15.8946 2.73478,16 3,16 L13,16 C13.2652,16 13.5196,15.8946 13.7071,15.7071 C13.8946,15.5196 14,15.2652 14,15 L14,3 C14,2.73478 13.8946,2.48043 13.7071,2.29289 C13.5196,2.10536 13.2652,2 13,2 Z" id="Path"></path>
            <path d="M9.5,2 L5.5,2 C5.22386,2 5,2.22386 5,2.5 C5,2.77614 5.22386,3 5.5,3 L9.5,3 C9.7761,3 10,2.77614 10,2.5 C10,2.22386 9.7761,2 9.5,2 Z" id="Path"></path>
            <path d="M9.5,6 L2.5,6 C2.22386,6 2,6.22386 2,6.5 C2,6.77614 2.22386,7 2.5,7 L9.5,7 C9.7761,7 10,6.77614 10,6.5 C10,6.22386 9.7761,6 9.5,6 Z" id="Path"></path>
            <path d="M9.5,8 L2.5,8 C2.22386,8 2,8.22386 2,8.5 C2,8.77614 2.22386,9 2.5,9 L9.5,9 C9.7761,9 10,8.77614 10,8.5 C10,8.22386 9.7761,8 9.5,8 Z" id="Path"></path>
            <path d="M9.5,10 L2.5,10 C2.22386,10 2,10.2239 2,10.5 C2,10.7761 2.22386,11 2.5,11 L9.5,11 C9.7761,11 10,10.7761 10,10.5 C10,10.2239 9.7761,10 9.5,10 Z" id="Path"></path>
        </g>
    </g>
</svg>