<svg width="16" height="16" viewBox="0 0 16 16" fill="none" xmlns="http://www.w3.org/2000/svg">
<path d="M8.36805 0H9.44768C9.44768 0.496744 9.44768 0.991628 9.44768 1.48837C11.2671 1.48837 13.0864 1.49209 14.9058 1.48279C15.213 1.49581 15.5511 1.47349 15.8182 1.6614C16.0054 1.93674 15.9836 2.28651 15.9964 2.60279C15.9873 5.83256 15.9909 9.06047 15.9927 12.2884C15.9836 12.8298 16.0418 13.3823 15.9309 13.9163C15.8582 14.3033 15.4038 14.3126 15.1003 14.3256C13.2173 14.3312 11.3325 14.3219 9.44768 14.3256C9.44768 14.8837 9.44768 15.4419 9.44768 16H8.31898C5.54901 15.4847 2.7736 15.0084 0 14.5116C0 10.1712 0 5.8307 0 1.49023C2.78996 0.993488 5.57991 0.504186 8.36805 0Z" fill="white"/>
<path d="M9.44727 2.04663C11.4466 2.04663 13.4459 2.04663 15.4452 2.04663C15.4452 5.95361 15.4452 9.86058 15.4452 13.7676C13.4459 13.7676 11.4466 13.7676 9.44727 13.7676C9.44727 13.3955 9.44727 13.0234 9.44727 12.6513C9.93255 12.6513 10.416 12.6513 10.9013 12.6513C10.9013 12.2178 10.9013 11.7824 10.9013 11.349C10.416 11.349 9.93255 11.349 9.44727 11.349C9.44727 11.1015 9.44727 10.8522 9.44727 10.6048C9.93255 10.6048 10.416 10.6048 10.9013 10.6048C10.9013 10.1713 10.9013 9.73593 10.9013 9.30244C10.416 9.30244 9.93255 9.30244 9.44727 9.30244C9.44727 9.055 9.44727 8.8057 9.44727 8.55826C9.93255 8.55826 10.416 8.55826 10.9013 8.55826C10.9013 8.12477 10.9013 7.68942 10.9013 7.25593C10.416 7.25593 9.93255 7.25593 9.44727 7.25593C9.44727 7.00849 9.44727 6.75919 9.44727 6.51175C9.93255 6.51175 10.416 6.51175 10.9013 6.51175C10.9013 6.07826 10.9013 5.64291 10.9013 5.20942C10.416 5.20942 9.93255 5.20942 9.44727 5.20942C9.44727 4.96198 9.44727 4.71268 9.44727 4.46524C9.93255 4.46524 10.416 4.46524 10.9013 4.46524C10.9013 4.03175 10.9013 3.5964 10.9013 3.16291C10.416 3.16291 9.93255 3.16291 9.44727 3.16291C9.44727 2.79082 9.44727 2.41872 9.44727 2.04663Z" fill="#19894C"/>
<path d="M11.6289 3.16284C12.4777 3.16284 13.3247 3.16284 14.1735 3.16284C14.1735 3.59633 14.1735 4.03168 14.1735 4.46516C13.3247 4.46516 12.4777 4.46516 11.6289 4.46516C11.6289 4.03168 11.6289 3.59633 11.6289 3.16284Z" fill="white"/>
<path d="M5.38447 4.90611C5.79524 4.87635 6.20783 4.8503 6.62042 4.82983C6.13513 5.84751 5.64802 6.86518 5.15364 7.87914C5.65347 8.921 6.16421 9.95542 6.66585 10.9973C6.22782 10.9712 5.79161 10.9433 5.35358 10.9117C5.04459 10.1359 4.66835 9.38611 4.44661 8.57495C4.19942 9.3303 3.84682 10.0429 3.56328 10.7833C3.16523 10.7777 2.76719 10.761 2.36914 10.7443C2.83625 9.80844 3.28701 8.86518 3.76866 7.93495C3.35971 6.97681 2.91077 6.03728 2.4891 5.08472C2.88896 5.06053 3.28883 5.03635 3.68869 5.01402C3.95951 5.74146 4.25577 6.4596 4.47933 7.20565C4.71925 6.41495 5.07731 5.67076 5.38447 4.90611Z" fill="#19894C"/>
<path d="M11.6289 5.20923C12.4777 5.20923 13.3247 5.20923 14.1735 5.20923C14.1735 5.64272 14.1735 6.07807 14.1735 6.51155C13.3247 6.51155 12.4777 6.51155 11.6289 6.51155C11.6289 6.07807 11.6289 5.64272 11.6289 5.20923Z" fill="white"/>
<path d="M11.6289 7.25586C12.4777 7.25586 13.3247 7.25586 14.1735 7.25586C14.1735 7.68935 14.1735 8.1247 14.1735 8.55819C13.3247 8.55819 12.4777 8.55819 11.6289 8.55819C11.6289 8.1247 11.6289 7.68935 11.6289 7.25586Z" fill="white"/>
<path d="M11.6289 9.30225C12.4777 9.30225 13.3247 9.30225 14.1735 9.30225C14.1735 9.73573 14.1735 10.1711 14.1735 10.6046C13.3247 10.6046 12.4777 10.6046 11.6289 10.6046C11.6289 10.1711 11.6289 9.73573 11.6289 9.30225Z" fill="white"/>
<path d="M11.6289 11.3489C12.4777 11.3489 13.3247 11.3489 14.1735 11.3489C14.1735 11.7824 14.1735 12.2177 14.1735 12.6512C13.3247 12.6512 12.4777 12.6512 11.6289 12.6512C11.6289 12.2177 11.6289 11.7824 11.6289 11.3489Z" fill="white"/>
</svg>
