<?xml version="1.0" encoding="UTF-8"?>
<svg width="14px" height="14px" viewBox="0 0 14 14" version="1.1" xmlns="http://www.w3.org/2000/svg" xmlns:xlink="http://www.w3.org/1999/xlink">
    <!-- Generator: Sketch 59.1 (86144) - https://sketch.com -->
    <title>icon-house-black</title>
    <desc>Created with Sketch.</desc>
    <g id="Page-1" stroke="none" stroke-width="1" fill="none" fill-rule="evenodd">
        <g id="icon-house-black" fill="#2A303E" fill-rule="nonzero">
            <path d="M7,6.12988 L13,6.87988 L13,12.9999 L7,12.9999 L7,6.12988 Z M7,5.12988 C6.73478,5.12988 6.48043,5.23524 6.29289,5.42278 C6.10536,5.61031 6,5.86467 6,6.12988 L6,13.9999 L14.0000268,13.9999 L14.0000268,6.87988 C14.0018,6.6342 13.913,6.39647 13.7507,6.21203 C13.5884,6.02759 13.3639,5.90936 13.12,5.87988 L7.12,5.12988 L7,5.12988 Z" id="Shape"></path>
            <path d="M5,13 L1,13 L1,1 L13,1 L13,5 L14,5 L14,1 C14,0.73478 13.8946,0.48043 13.7071,0.29289 C13.5196,0.10536 13.2652,0 13,0 L1,0 C0.73478,0 0.48043,0.10536 0.29289,0.29289 C0.10536,0.48043 0,0.73478 0,1 L0,13 C0,13.2652 0.10536,13.5196 0.29289,13.7071 C0.48043,13.8946 0.73478,14 1,14 L5,14 L5,13 Z" id="Path"></path>
            <path d="M4.82992,4.82992 L2.16992,4.82992 L2.16992,2.16992 L4.82992,2.16992 L4.82992,4.82992 Z M2.82992,4.16992 L4.16992,4.16992 L4.16992,2.82992 L2.82992,2.82992 L2.82992,4.16992 Z" id="Shape"></path>
            <path d="M11.8299,4.82992 L9.1699,4.82992 L9.1699,2.16992 L11.8299,2.16992 L11.8299,4.82992 Z M9.8299,4.16992 L11.1699,4.16992 L11.1699,2.82992 L9.8299,2.82992 L9.8299,4.16992 Z" id="Shape"></path>
            <path d="M4.82992,7.82992 L2.16992,7.82992 L2.16992,5.16992 L4.82992,5.16992 L4.82992,7.82992 Z M2.82992,7.16992 L4.16992,7.16992 L4.16992,5.82992 L2.82992,5.82992 L2.82992,7.16992 Z" id="Shape"></path>
            <path d="M4.82992,10.8299 L2.16992,10.8299 L2.16992,8.16992 L4.82992,8.16992 L4.82992,10.8299 Z M2.82992,10.1699 L4.16992,10.1699 L4.16992,8.82992 L2.82992,8.82992 L2.82992,10.1699 Z" id="Shape"></path>
            <path d="M12,14 L9,14 L9,9 L12,9 L12,14 Z M10,13 L11,13 L11,10 L10,10 L10,13 Z" id="Shape"></path>
        </g>
    </g>
</svg>