<?xml version="1.0" encoding="UTF-8"?>
<svg width="32px" height="32px" viewBox="0 0 32 32" version="1.1" xmlns="http://www.w3.org/2000/svg" xmlns:xlink="http://www.w3.org/1999/xlink">
    <!-- Generator: Sketch 59.1 (86144) - https://sketch.com -->
    <title>icon-people-white</title>
    <desc>Created with Sketch.</desc>
    <g id="Page-1" stroke="none" stroke-width="1" fill="none" fill-rule="evenodd">
        <g id="icon-people-white" fill="#FEFEFE" fill-rule="nonzero">
            <path d="M9,2 C10.57,2 12,3.431 12,5.002 C12,6.572 10.57,8.002 9,8.002 C7.43,8.002 6,6.572 6,5.002 C6,3.432 7.43,2 9,2 Z M23.5,5.892 C25.07,5.892 26.5,7.322 26.5,8.892 C26.5,10.463 25.07,11.894 23.5,11.894 C21.93,11.894 20.5,10.464 20.5,8.893 C20.5,7.323 21.93,5.892 23.5,5.892 Z M8.75,14.004 C12.85,14.004 15.5,17.936 15.5,24.008 C15.5,24.848 12.81,26.118 8.75,26.118 C4.69,26.118 2,24.848 2,24.008 C2,17.936 4.65,14.004 8.75,14.004 Z M23.25,17.896 C27.35,17.896 30,21.826 30,27.899 C30,28.739 27.32,29.999 23.29,29.999 C22.11,29.999 20.96,29.889 19.95,29.679 C21.6,28.159 22.5,26.209 22.5,24.008 C22.5,21.907 22.26,19.926 21.78,18.116 C22.27,17.966 22.76,17.896 23.25,17.896 L23.25,17.896 Z M9,0 C6.32,0 4,2.32 4,5.002 C4,7.682 6.32,10.003 9,10.003 C11.68,10.003 14,7.683 14,5.002 C14,2.32 11.68,0 9,0 Z M23.5,3.891 C20.82,3.891 18.5,6.211 18.5,8.893 C18.5,11.573 20.82,13.894 23.5,13.894 C26.18,13.894 28.5,11.574 28.5,8.893 C28.5,6.212 26.18,3.891 23.5,3.891 Z M8.75,12.004 C4.15,12.004 0,16.005 0,24.008 C0,26.748 4.38,28.118 8.75,28.118 C13.12,28.118 17.5,26.748 17.5,24.008 C17.5,16.005 13.35,12.004 8.75,12.004 Z M23.25,15.895 C21.87,15.895 20.54,16.305 19.34,17.025 C20.07,18.975 20.5,21.297 20.5,24.008 C20.5,26.698 18.7,28.799 15.62,29.999 C17.19,31.33 20.24,32 23.29,32 C27.65,32 32,30.64 32,27.899 C32,19.896 27.85,15.895 23.25,15.895 Z" id="Shape"></path>
        </g>
    </g>
</svg>