<?xml version="1.0" encoding="UTF-8"?>
<svg width="16px" height="12px" viewBox="0 0 16 12" version="1.1" xmlns="http://www.w3.org/2000/svg" xmlns:xlink="http://www.w3.org/1999/xlink">
    <!-- Generator: Sketch 59.1 (86144) - https://sketch.com -->
    <title>icon-letter-blue</title>
    <desc>Created with Sketch.</desc>
    <g id="Page-1" stroke="none" stroke-width="1" fill="none" fill-rule="evenodd">
        <g id="icon-letter-blue" fill="#0D50C6" fill-rule="nonzero">
            <path d="M15,0 L1,0 C0.448,0 0,0.448 0,1 L0,11 C0,11.552 0.448,12 1,12 L15,12 C15.552,12 16,11.552 16,11 L16,1 C16,0.448 15.552,0 15,0 Z M5.68,7.027 L8.002,8.605 L10.31,7.016 L14.293,11 L1.707,11 L5.68,7.027 Z M1,10.293 L1,3.845 L4.838,6.454 L1,10.293 Z M11.147,6.44 L15,3.788 L15,10.293 L11.147,6.44 Z M15,1 L15,2.618 L14.979,2.588 L7.998,7.395 L1,2.637 L1,1 L15,1 Z" id="Shape"></path>
        </g>
    </g>
</svg>