<?xml version="1.0" encoding="UTF-8"?>
<svg width="16px" height="16px" viewBox="0 0 16 16" version="1.1" xmlns="http://www.w3.org/2000/svg" xmlns:xlink="http://www.w3.org/1999/xlink">
    <!-- Generator: Sketch 59.1 (86144) - https://sketch.com -->
    <title>icon-search-blue</title>
    <desc>Created with Sketch.</desc>
    <g id="Page-1" stroke="none" stroke-width="1" fill="none" fill-rule="evenodd">
        <g id="icon-search-blue" fill="#0D50C6" fill-rule="nonzero">
            <path d="M9.52287,0 C5.94551,0 3.04574,2.89976 3.04574,6.47713 C3.04574,8.01669 3.58584,9.4297 4.48267,10.5418 L0.201787,14.8227 C-0.0672625,15.0917 -0.0672625,15.5292 0.201787,15.7982 C0.470837,16.0673 0.908293,16.0673 1.17734,15.7982 L5.45823,11.5173 C6.5703,12.4142 7.98331,12.9543 9.52287,12.9543 C13.1002,12.9543 15.9999999,10.0545 15.9999999,6.47713 C15.9999999,2.89976 13.1002,0 9.52287,0 Z M9.52287,11.9578 C6.50055,11.9578 4.04223,9.49946 4.04223,6.47713 C4.04223,3.4548 6.50055,0.996481 9.52287,0.996481 C12.5452,0.996481 15.0035,3.4548 15.0035,6.47713 C15.0035,9.49946 12.5452,11.9578 9.52287,11.9578 Z" id="Shape"></path>
        </g>
    </g>
</svg>