<?xml version="1.0" encoding="UTF-8"?>
<svg width="32px" height="32px" viewBox="0 0 32 32" version="1.1" xmlns="http://www.w3.org/2000/svg" xmlns:xlink="http://www.w3.org/1999/xlink">
    <!-- Generator: Sketch 59.1 (86144) - https://sketch.com -->
    <title>icon-search-large-white</title>
    <desc>Created with Sketch.</desc>
    <g id="Page-1" stroke="none" stroke-width="1" fill="none" fill-rule="evenodd">
        <g id="icon-search-large-white" fill="#FEFEFE" fill-rule="nonzero">
            <path d="M19.0457,0 C11.891,0 6.09149,5.79952 6.09149,12.9543 C6.09149,16.0334 7.17167,18.8594 8.96534,21.0835 L0.403575,29.6453 C-0.134525,30.1834 -0.134525,31.0583 0.403575,31.5964 C0.941675,32.1345 1.81659,32.1345 2.35468,31.5964 L10.9165,23.0347 C13.1406,24.8283 15.9666,25.9085 19.0457,25.9085 C26.2005,25.9085 32,20.109 32,12.9543 C32,5.79952 26.2005,0 19.0457,0 Z M19.0457,23.9155 C13.0011,23.9155 8.08445,18.9989 8.08445,12.9543 C8.08445,6.9096 13.0011,1.99296 19.0457,1.99296 C25.0904,1.99296 30.007,6.9096 30.007,12.9543 C30.007,18.9989 25.0904,23.9155 19.0457,23.9155 Z" id="Shape"></path>
        </g>
    </g>
</svg>