<?xml version="1.0" encoding="UTF-8"?>
<svg width="14px" height="14px" viewBox="0 0 14 14" version="1.1" xmlns="http://www.w3.org/2000/svg" xmlns:xlink="http://www.w3.org/1999/xlink">
    <!-- Generator: Sketch 59.1 (86144) - https://sketch.com -->
    <title>icon-house-add-blue</title>
    <desc>Created with Sketch.</desc>
    <g id="Page-1" stroke="none" stroke-width="1" fill="none" fill-rule="evenodd">
        <g id="icon-house-add-blue" fill="#0D50C6" fill-rule="nonzero">
            <path d="M5,13 L1,13 L1,1 L13,1 L13,5 L14,5 L14,1 C14,0.73478 13.8946,0.48043 13.7071,0.29289 C13.5196,0.10536 13.2652,0 13,0 L1,0 C0.73478,0 0.48043,0.10536 0.29289,0.29289 C0.10536,0.48043 0,0.73478 0,1 L0,13 C0,13.2652 0.10536,13.5196 0.29289,13.7071 C0.48043,13.8946 0.73478,14 1,14 L5,14 L5,13 Z" id="Path"></path>
            <path d="M4.82992,4.82992 L2.16992,4.82992 L2.16992,2.16992 L4.82992,2.16992 L4.82992,4.82992 Z M2.82992,4.16992 L4.16992,4.16992 L4.16992,2.82992 L2.82992,2.82992 L2.82992,4.16992 Z" id="Shape"></path>
            <path d="M11.8299,4.82992 L9.1699,4.82992 L9.1699,2.16992 L11.8299,2.16992 L11.8299,4.82992 Z M9.8299,4.16992 L11.1699,4.16992 L11.1699,2.82992 L9.8299,2.82992 L9.8299,4.16992 Z" id="Shape"></path>
            <path d="M4.82992,7.82992 L2.16992,7.82992 L2.16992,5.16992 L4.82992,5.16992 L4.82992,7.82992 Z M2.82992,7.16992 L4.16992,7.16992 L4.16992,5.82992 L2.82992,5.82992 L2.82992,7.16992 Z" id="Shape"></path>
            <path d="M4.82992,10.8299 L2.16992,10.8299 L2.16992,8.16992 L4.82992,8.16992 L4.82992,10.8299 Z M2.82992,10.1699 L4.16992,10.1699 L4.16992,8.82992 L2.82992,8.82992 L2.82992,10.1699 Z" id="Shape"></path>
            <path d="M10.1002,7.06995 C10.6935,7.06995 11.2736,7.2459 11.7669,7.57554 C12.2603,7.90519 12.6448,8.37372 12.8718,8.9219 C13.0989,9.4701 13.1583,10.0733 13.0426,10.6552 C12.9268,11.2372 12.6411,11.7717 12.2215,12.1913 C11.802,12.6108 11.2674,12.8966 10.6855,13.0123 C10.1035,13.1281 9.5003,13.0687 8.95215,12.8416 C8.40397,12.6145 7.93543,12.23 7.60579,11.7367 C7.27614,11.2433 7.1002,10.6633 7.1002,10.07 C7.1002,9.2743 7.41627,8.51124 7.97888,7.94863 C8.54149,7.38602 9.3045,7.06995 10.1002,7.06995 Z M10.1002,6.19995 C9.3289,6.19995 8.57482,6.42868 7.93347,6.85722 C7.29212,7.28576 6.79225,7.89485 6.49707,8.60749 C6.20189,9.3201 6.12465,10.1043 6.27513,10.8608 C6.42562,11.6173 6.79706,12.3122 7.34248,12.8577 C7.8879,13.4031 8.58282,13.7745 9.3393,13.925 C10.0959,14.0755 10.88,13.9983 11.5927,13.7031 C12.3053,13.4079 12.9144,12.908 13.3429,12.2667 C13.7715,11.6253 14.0002,10.8713 14.0002,10.1 C13.9949,9.0672 13.5824,8.0783 12.8521,7.34804 C12.1219,6.61779 11.1329,6.20521 10.1002,6.19995 Z" id="Shape"></path>
            <path d="M11.5696,9.7099 L10.4996,9.7099 L10.4996,8.62993 C10.4996,8.51058 10.4522,8.39612 10.3678,8.31173 C10.2834,8.22734 10.1689,8.17993 10.0496,8.17993 C9.9302,8.17993 9.8158,8.22734 9.7314,8.31173 C9.647,8.39612 9.5996,8.51058 9.5996,8.62993 L9.5996,9.7099 L8.50957,9.7099 C8.39022,9.7099 8.27576,9.7573 8.19137,9.8417 C8.10698,9.9261 8.05957,10.0406 8.05957,10.1599 C8.05957,10.2793 8.10698,10.3937 8.19137,10.4781 C8.27576,10.5625 8.39022,10.6099 8.50957,10.6099 L9.5896,10.6099 L9.5896,11.6799 C9.5896,11.7993 9.637,11.9137 9.7214,11.9981 C9.8058,12.0825 9.9202,12.1299 10.0396,12.1299 C10.1589,12.1299 10.2734,12.0825 10.3578,11.9981 C10.4422,11.9137 10.4896,11.7993 10.4896,11.6799 L10.4896,10.6199 L11.5596,10.6199 C11.6789,10.6199 11.7934,10.5725 11.8778,10.4881 C11.9622,10.4037 12.0096,10.2893 12.0096,10.1699 C12.0109,10.1108 12.0006,10.0521 11.9792,9.9969 C11.9578,9.9418 11.9257,9.8915 11.8849,9.8488 C11.844,9.8061 11.7951,9.7718 11.741,9.748 C11.6869,9.7242 11.6287,9.7112 11.5696,9.7099 Z" id="Path"></path>
        </g>
    </g>
</svg>