<?xml version="1.0" encoding="UTF-8"?>
<svg width="15px" height="14px" viewBox="0 0 15 14" version="1.1" xmlns="http://www.w3.org/2000/svg" xmlns:xlink="http://www.w3.org/1999/xlink">
    <!-- Generator: Sketch 59.1 (86144) - https://sketch.com -->
    <title>icon-list-black</title>
    <desc>Created with Sketch.</desc>
    <g id="Page-1" stroke="none" stroke-width="1" fill="none" fill-rule="evenodd">
        <g id="icon-list-black" fill="#2A303E" fill-rule="nonzero">
            <path d="M11.1998,7.14004 L10.7198,7.63004 L10.0098,8.33004 L7.00977,11.33 L7.00977,13.97 L9.6998,13.97 L12.6998,10.97 L13.4098,10.26 L13.8898,9.77 C14.076,9.5827 14.1806,9.3292 14.1806,9.065 C14.1806,8.80085 14.076,8.5474 13.8898,8.36004 L12.6198,7.14004 C12.5268,7.04631 12.4162,6.97191 12.2943,6.92115 C12.1725,6.87038 12.0418,6.84424 11.9098,6.84424 C11.7778,6.84424 11.647,6.87038 11.5252,6.92115 C11.4033,6.97191 11.2927,7.04631 11.1998,7.14004 Z M11.8898,10.32 L10.1098,12.1 L9.6298,12.59 L9.2398,12.98 L7.99977,12.98 L7.99977,11.75 L8.38977,11.36 L8.86977,10.87 L10.6498,9.09 L11.8898,10.32 Z M13.1398,9.08 L12.6498,9.56 L12.5998,9.56 L11.3698,8.39004 L11.4298,8.33004 L11.9098,7.85004 L13.1398,9.08 Z" id="Shape"></path>
            <path d="M14.1299,3.89 L12.2099,2 L10.2199,0 L1.12988,0 C0.86467,0 0.61031,0.10536 0.42278,0.29289 C0.23524,0.48043 0.12988,0.73478 0.12988,1 L0.12988,13 C0.12988,13.2652 0.23524,13.5196 0.42278,13.7071 C0.61031,13.8946 0.86467,14 1.12988,14 L6.04988,14 L6.04988,13 L1.13988,13 L1.13988,1 L10.2099,1 L10.2099,3.9 L13.1399,3.9 L13.1399,7 L14.1399,7 L14.1399,3.89 L14.1299,3.89 Z" id="Path"></path>
            <path d="M6.42969,6.79004 L2.42969,6.79004 L2.42969,2.79004 L6.42969,2.79004 L6.42969,6.79004 Z M3.42969,5.79004 L5.42969,5.79004 L5.42969,3.79004 L3.42969,3.79004 L3.42969,5.79004 Z" id="Shape"></path>
            <polygon id="Path" points="4.03992 11.4601 2.41992 9.8501 3.12992 9.1401 4.03992 10.0401 6.00992 8.06006 6.71992 8.77006"></polygon>
        </g>
    </g>
</svg>