<svg width="12" height="12" viewBox="0 0 12 12" fill="none" xmlns="http://www.w3.org/2000/svg">
<path d="M3.3165 5.04603C3.19991 5.04775 3.12519 5.05937 3.08105 5.07076V6.61559C3.12509 6.62688 3.19673 6.62817 3.26146 6.62945C3.73814 6.64215 4.05466 6.37638 4.05466 5.80038C4.05809 5.29945 3.76996 5.03912 3.3165 5.04603Z" fill="white"/>
<path d="M7.3205 10.9639C7.33622 10.9648 7.35212 10.9662 7.36825 10.9662H11.0013C11.4261 10.9662 11.7719 10.6204 11.7719 10.1955V1.77358C11.7719 1.34875 11.4261 1.00294 11.0013 1.00294H7.36825C7.35222 1.00294 7.33622 1.00451 7.3205 1.00524V0L0.229492 0.94632V11.0292L7.3205 12V10.9639ZM11.0013 10.526H7.36825C7.352 10.526 7.33622 10.5234 7.3205 10.5211V7.2167C8.0775 7.08587 9.12874 6.98685 10.038 7.20047L10.1456 7.40913C10.5796 8.22979 11.0432 8.2244 11.2223 8.18398C11.2634 8.17474 11.2855 8.16442 11.2855 8.16442L11.3096 8.15162C11.3178 8.14646 11.3241 8.1399 11.3315 8.13431V10.1957C11.3315 10.3778 11.1834 10.526 11.0013 10.526ZM7.62863 6.82504C8.19756 6.13117 8.6573 5.4834 8.95339 5.04471L8.95447 5.04714L8.95769 5.04218C9.19012 5.53221 9.5733 6.29017 9.83714 6.80752L9.83628 6.8073L9.84531 6.82463C9.0951 6.69647 8.28951 6.74324 7.62692 6.83484L7.63661 6.82355L7.62863 6.82504ZM8.96694 3.58732C8.98974 3.54712 9.02307 3.53647 9.08285 3.5391C9.08393 3.53921 9.20262 3.54699 9.2469 3.6283C9.27377 3.67672 9.31271 3.8303 9.10327 4.20481H9.10305C9.10305 4.20481 9.07595 4.24987 9.02501 4.33119C8.9076 3.9189 8.91534 3.67814 8.96694 3.58732ZM10.482 7.33562C10.6972 7.41841 10.8905 7.52043 11.0597 7.64104C11.1083 7.71007 11.1533 7.80942 11.1451 7.85629C11.1447 7.85855 11.1443 7.86082 11.143 7.86306C11.0735 7.87586 10.7972 7.88447 10.482 7.33562ZM7.36825 1.44338H11.0013C11.1834 1.44338 11.3315 1.5916 11.3315 1.77366V7.45386C11.3212 7.43912 11.3123 7.42699 11.307 7.42043L11.293 7.40234L11.2748 7.38881C10.9929 7.18302 10.6531 7.02444 10.2639 6.91727C9.98647 6.37541 9.41182 5.24604 9.17025 4.71715C9.31012 4.50169 9.38527 4.37611 9.38872 4.37036C9.60664 3.98186 9.65426 3.67857 9.53375 3.46463C9.42452 3.27099 9.20692 3.21282 9.09575 3.20913C8.916 3.20096 8.76268 3.27784 8.67946 3.42426C8.55259 3.64783 8.57883 4.03945 8.75816 4.58748C8.76613 4.6128 8.77891 4.64526 8.79579 4.68612C8.50851 5.12061 7.98731 5.87213 7.32042 6.67933V1.44824C7.33622 1.44591 7.3519 1.44338 7.36825 1.44338ZM2.04578 5.93185C1.87812 6.09817 1.63165 6.17074 1.34717 6.16816C1.2846 6.16752 1.22804 6.16365 1.18435 6.15655V6.96589L0.718666 6.95299V4.7433C0.86252 4.71335 1.06609 4.68848 1.35663 4.68143C1.65351 4.67417 1.86853 4.7304 2.01353 4.85017C2.15335 4.96391 2.24768 5.15513 2.24768 5.38202C2.24768 5.60913 2.17591 5.80169 2.04578 5.93185ZM4.23208 6.76279C3.98056 6.96801 3.6025 7.05747 3.1488 7.04479C2.88152 7.03715 2.69402 7.01468 2.56764 6.99382V4.70057C2.75422 4.66504 2.9996 4.64169 3.26152 4.63531C3.70344 4.62451 3.99455 4.69971 4.22525 4.87054C4.47575 5.05362 4.63471 5.35166 4.63471 5.78277C4.63471 6.25007 4.46507 6.56948 4.23208 6.76279ZM5.00068 4.6115L6.56729 4.57409V5.04516L5.57082 5.05961V5.62824L6.50105 5.62593V6.09248L5.57082 6.08603V7.08697L5.00052 7.07125V4.61152H5.00068V4.6115Z" fill="white"/>
<path d="M1.38198 5.06869C1.28473 5.0702 1.21905 5.08121 1.18457 5.09191V5.76014C1.22494 5.77029 1.27505 5.7737 1.34428 5.7737C1.60016 5.7739 1.75943 5.63431 1.75943 5.39972C1.75945 5.18865 1.62232 5.06482 1.38198 5.06869Z" fill="white"/>
</svg>
