<?xml version="1.0" encoding="UTF-8"?>
<svg width="14px" height="14px" viewBox="0 0 14 14" version="1.1" xmlns="http://www.w3.org/2000/svg" xmlns:xlink="http://www.w3.org/1999/xlink">
    <!-- Generator: Sketch 59.1 (86144) - https://sketch.com -->
    <title>icon-certificate-black</title>
    <desc>Created with Sketch.</desc>
    <g id="Page-1" stroke="none" stroke-width="1" fill="none" fill-rule="evenodd">
        <g id="icon-certificate-black" fill="#2A303E" fill-rule="nonzero">
            <path d="M10.5003,7.00000423 C9.9506,6.99753 9.4155,7.17702 8.97849,7.51051 C8.54148,7.84399 8.2271,8.31272 8.08439,8.84359 C7.94168,9.3745 7.97866,9.9376 8.18957,10.4453 C8.40047,10.953 8.77345,11.3766 9.2503,11.65 L9.2503,14.0000042 L10.5003,12.75 L11.7503,14.0000042 L11.7503,11.65 C12.2272,11.3766 12.6002,10.953 12.8111,10.4453 C13.022,9.9376 13.059,9.3745 12.9162,8.84359 C12.7735,8.31272 12.4592,7.84399 12.0221,7.51051 C11.5851,7.17702 11.05,6.99753 10.5003,7.00000423 Z M10.5003,11.19 C10.1661,11.19 9.8393,11.0909 9.5614,10.9052 C9.2835,10.7195 9.0669,10.4556 8.93896,10.1468 C8.81105,9.838 8.77758,9.4982 8.84279,9.1703 C8.908,8.8425 9.069,8.54137 9.3053,8.30502 C9.5417,8.06866 9.8428,7.90771 10.1706,7.8425 C10.4984,7.77729 10.8382,7.81076 11.1471,7.93867 C11.4559,8.06658 11.7198,8.28319 11.9055,8.56111 C12.0912,8.83903 12.1903,9.1658 12.1903,9.5 C12.1903,9.9482 12.0123,10.3781 11.6953,10.695 C11.3784,11.012 10.9485,11.19 10.5003,11.19 Z" id="Shape"></path>
            <path d="M13,0 L1,0 C0.73478,0 0.48043,0.10536 0.29289,0.29289 C0.10536,0.48043 0,0.73478 0,1 L0,13 C0,13.2652 0.10536,13.5196 0.29289,13.7071 C0.48043,13.8946 0.73478,14 1,14 L7,14 L7,13 L1,13 L1,1 L13,1 L13,7 L14,7 L14,1 C14,0.73478 13.8946,0.48043 13.7071,0.29289 C13.5196,0.10536 13.2652,0 13,0 Z" id="Path"></path>
            <polygon id="Path" points="11 2 2 2 2 3 11 3"></polygon>
            <polygon id="Path" points="9 4 2 4 2 5 9 5"></polygon>
            <polygon id="Path" points="7 6 2 6 2 7 7 7"></polygon>
            <polygon id="Path" points="5 10.6399 2 10.6399 2 11.6399 5 11.6399"></polygon>
        </g>
    </g>
</svg>