<svg width="18" height="18" viewBox="0 0 18 18" fill="none" xmlns="http://www.w3.org/2000/svg">
<path fill-rule="evenodd" clip-rule="evenodd" d="M11.7098 11H12.4998L17.4898 16L15.9998 17.49L10.9998 12.5V11.71L10.7298 11.43C9.58976 12.41 8.10976 13 6.49976 13C2.90976 13 -0.000244141 10.09 -0.000244141 6.5C-0.000244141 2.91 2.90976 0 6.49976 0C10.0898 0 12.9998 2.91 12.9998 6.5C12.9998 8.11 12.4098 9.59 11.4298 10.73L11.7098 11ZM1.99976 6.5C1.99976 8.99 4.00976 11 6.49976 11C8.98976 11 10.9998 8.99 10.9998 6.5C10.9998 4.01 8.98976 2 6.49976 2C4.00976 2 1.99976 4.01 1.99976 6.5Z" fill="#E33834"/>
</svg>
