<?xml version="1.0" encoding="UTF-8"?>
<svg width="16px" height="16px" viewBox="0 0 16 16" version="1.1" xmlns="http://www.w3.org/2000/svg" xmlns:xlink="http://www.w3.org/1999/xlink">
    <!-- Generator: Sketch 59.1 (86144) - https://sketch.com -->
    <title>icon-people-black</title>
    <desc>Created with Sketch.</desc>
    <g id="Page-1" stroke="none" stroke-width="1" fill="none" fill-rule="evenodd">
        <g id="icon-people-black" fill="#2A303E" fill-rule="nonzero">
            <path d="M4.5,1.00031 C5.285,1.00031 6,1.71554 6,2.50078 C6,3.28603 5.285,4.00125 4.5,4.00125 C3.715,4.00125 3,3.28603 3,2.50078 C3,1.71554 3.715,1.00031 4.5,1.00031 Z M11.75,2.94592 C12.535,2.94592 13.25,3.66114 13.25,4.44639 C13.25,5.23164 12.535,5.94686 11.75,5.94686 C10.965,5.94686 10.25,5.23164 10.25,4.44639 C10.25,3.66114 10.965,2.94592 11.75,2.94592 Z M4.375,7.00219 C6.425,7.00219 7.75,8.9678 7.75,12.0038 C7.75,12.4239 6.405,13.0591 4.375,13.0591 C2.345,13.0591 1,12.4239 1,12.0038 C1,8.9678 2.325,7.00219 4.375,7.00219 Z M11.625,8.9478 C13.675,8.9478 15,10.9134 15,13.9494 C15,14.3695 13.66,14.9997 11.645,14.9997 C11.055,14.9997 10.48,14.9447 9.975,14.8396 C10.8,14.0794 11.25,13.1041 11.25,12.0038 C11.25,10.9534 11.13,9.96311 10.89,9.05783 C11.135,8.98281 11.38,8.9478 11.625,8.9478 Z M4.5,0 C3.16,0 2,1.16036 2,2.50078 C2,3.8412 3.16,5.00156 4.5,5.00156 C5.84,5.00156 7,3.8412 7,2.50078 C7,1.16036 5.84,0 4.5,0 Z M11.75,1.94561 C10.41,1.94561 9.25,3.10597 9.25,4.44639 C9.25,5.78681 10.41,6.94717 11.75,6.94717 C13.09,6.94717 14.25,5.78681 14.25,4.44639 C14.25,3.10597 13.09,1.94561 11.75,1.94561 Z M4.375,6.00188 C2.075,6.00188 0,8.0025 0,12.0038 C0,13.3742 2.19,14.0594 4.375,14.0594 C6.56,14.0594 8.75,13.3742 8.75,12.0038 C8.75,8.0025 6.675,6.00188 4.375,6.00188 Z M11.625,7.94748 C10.935,7.94748 10.27,8.15255 9.67,8.51266 C10.035,9.48796 10.25,10.6483 10.25,12.0038 C10.25,13.3492 9.35,14.3995 7.81,14.9997 C8.595,15.6649 10.12,16 11.645,16 C13.825,16 16,15.3198 16,13.9494 C16,9.94811 13.925,7.94748 11.625,7.94748 Z" id="Shape"></path>
        </g>
    </g>
</svg>