<?xml version="1.0" encoding="UTF-8"?>
<svg width="16px" height="11px" viewBox="0 0 16 11" version="1.1" xmlns="http://www.w3.org/2000/svg" xmlns:xlink="http://www.w3.org/1999/xlink">
    <!-- Generator: Sketch 60.1 (88133) - https://sketch.com -->
    <title>icon-card-blue</title>
    <desc>Created with Sketch.</desc>
    <g id="Page-1" stroke="none" stroke-width="1" fill="none" fill-rule="evenodd">
        <g id="icon-card-blue" fill="#0848B9" fill-rule="nonzero">
            <path d="M15,0 L1,0 C0.448,0 0,0.448 0,1 L0,10 C0,10.552 0.448,11 1,11 L15,11 C15.552,11 16,10.552 16,10 L16,1 C16,0.448 15.552,0 15,0 Z M1,1 L15,1 L15,10 L1,10 L1,1 Z M13.583,5 L7.5,5 C7.224,5 7,5.224 7,5.5 C7,5.776 7.224,6 7.5,6 L13.583,6 C13.859,6 14.083,5.776 14.083,5.5 C14.083,5.224 13.859,5 13.583,5 Z M13.583,7 L7.5,7 C7.224,7 7,7.224 7,7.5 C7,7.776 7.224,8 7.5,8 L13.583,8 C13.859,8 14.083,7.776 14.083,7.5 C14.083,7.224 13.859,7 13.583,7 Z M13.583,3 L7.5,3 C7.224,3 7,3.224 7,3.5 C7,3.776 7.224,4 7.5,4 L13.583,4 C13.859,4 14.083,3.776 14.083,3.5 C14.083,3.224 13.859,3 13.583,3 Z M2.79,3.208 C2.79,3.52838 2.91727,3.83564 3.14382,4.06218 C3.37036,4.28873 3.67762,4.416 3.998,4.416 C4.31838,4.416 4.62564,4.28873 4.85218,4.06218 C5.07873,3.83564 5.206,3.52838 5.206,3.208 C5.206,2.88762 5.07873,2.58036 4.85218,2.35382 C4.62564,2.12727 4.31838,2 3.998,2 C3.67762,2 3.37036,2.12727 3.14382,2.35382 C2.91727,2.58036 2.79,2.88762 2.79,3.208 Z M4.024,4.899 C2.932,4.899 2.048,6.085 2.048,7.549 C2.048,9.013 6,9.012 6,7.549 C6,6.086 5.115,4.899 4.024,4.899 Z" id="Shape"></path>
        </g>
    </g>
</svg>