<svg width="12" height="12" viewBox="0 0 12 12" fill="none" xmlns="http://www.w3.org/2000/svg">
<path d="M6.27159 0H7.08682C7.08682 0.372558 7.08682 0.743721 7.08682 1.11628C8.5455 1.12465 10.0028 1.10093 11.4601 1.12465C11.771 1.09256 12.015 1.33953 11.9864 1.65767C12.0095 4.40651 11.9809 7.15674 12 9.90558C11.9864 10.1874 12.0273 10.5 11.8678 10.7498C11.6687 10.8949 11.4111 10.8767 11.1793 10.8879C9.8147 10.8809 8.45144 10.8837 7.08682 10.8837C7.08682 11.2563 7.08682 11.6274 7.08682 12H6.23478C4.1599 11.6121 2.07957 11.2563 0.000605892 10.8837C-0.000757365 7.62837 0.000605892 4.37302 0.000605892 1.11907C2.09048 0.745116 4.18172 0.38093 6.27159 0Z" fill="#0D50C6"/>
<path d="M7.08691 1.53491C8.5865 1.53491 10.0861 1.53491 11.5857 1.53491C11.5857 4.51119 11.5857 7.48886 11.5857 10.4651C10.0861 10.4651 8.5865 10.4651 7.08691 10.4651C7.08691 10.0926 7.08691 9.72142 7.08691 9.34886C8.26886 9.34886 9.44944 9.34886 10.6314 9.34886C10.6314 9.16328 10.6314 8.97631 10.6314 8.79072C9.44944 8.79072 8.26886 8.79072 7.08691 8.79072C7.08691 8.5577 7.08691 8.32607 7.08691 8.09305C8.26886 8.09305 9.44944 8.09305 10.6314 8.09305C10.6314 7.90747 10.6314 7.72049 10.6314 7.53491C9.44944 7.53491 8.26886 7.53491 7.08691 7.53491C7.08691 7.30189 7.08691 7.07026 7.08691 6.83724C8.26886 6.83724 9.44944 6.83724 10.6314 6.83724C10.6314 6.65166 10.6314 6.46468 10.6314 6.2791C9.44944 6.2791 8.26886 6.2791 7.08691 6.2791C7.08691 6.04607 7.08691 5.81445 7.08691 5.58142C8.26886 5.58142 9.44944 5.58142 10.6314 5.58142C10.6314 5.39584 10.6314 5.20886 10.6314 5.02328C9.44944 5.02328 8.26886 5.02328 7.08691 5.02328C7.08691 4.79026 7.08691 4.55863 7.08691 4.32561C8.26886 4.32561 9.44944 4.32561 10.6314 4.32561C10.6314 4.14003 10.6314 3.95305 10.6314 3.76747C9.44944 3.76747 8.26886 3.76747 7.08691 3.76747C7.08691 3.53445 7.08691 3.30282 7.08691 3.0698C8.26886 3.0698 9.44944 3.0698 10.6314 3.0698C10.6314 2.88421 10.6314 2.69724 10.6314 2.51166C9.44944 2.51166 8.26886 2.51166 7.08691 2.51166C7.08691 2.18654 7.08691 1.86003 7.08691 1.53491Z" fill="white"/>
<path fill-rule="evenodd" clip-rule="evenodd" d="M7.0703 0H6.27158C4.95657 0.239691 3.64103 0.472753 2.32563 0.705791C1.55052 0.843108 0.775463 0.980418 0.000592329 1.11907C0.000592329 2.20362 0.000440885 3.28832 0.000289426 4.37313C-1.35345e-05 6.54305 -0.000316553 8.71338 0.000592329 10.8837C0.706269 11.0102 1.4121 11.1347 2.11783 11.2592C3.49121 11.5015 4.86418 11.7438 6.23477 12H7.0703V0Z" fill="white"/>
<path d="M2.81697 4.00041C3.07599 3.98507 3.335 3.9739 3.59402 3.95995C3.77534 4.90181 3.96074 5.84227 4.15705 6.77995C4.3111 5.81158 4.4815 4.846 4.64646 3.87902C4.91911 3.86925 5.19176 3.8539 5.46305 3.83716C5.15495 5.18925 4.88503 6.55251 4.5483 7.89623C4.32064 8.01762 3.97982 7.89065 3.7099 7.91018C3.52859 6.98646 3.31728 6.06832 3.15505 5.14041C2.99555 6.04181 2.78834 6.93483 2.60566 7.83065C2.34392 7.81669 2.08081 7.79995 1.8177 7.78181C1.5914 6.5539 1.32556 5.33437 1.11426 4.10367C1.34737 4.09251 1.58186 4.08274 1.81497 4.07437C1.95539 4.9632 2.11489 5.84786 2.23758 6.73809C2.4298 5.82553 2.62611 4.91297 2.81697 4.00041Z" fill="#0D50C6"/>
</svg>
