<?xml version="1.0" encoding="UTF-8"?>
<svg width="16px" height="16px" viewBox="0 0 16 16" version="1.1" xmlns="http://www.w3.org/2000/svg" xmlns:xlink="http://www.w3.org/1999/xlink">
    <!-- Generator: Sketch 59.1 (86144) - https://sketch.com -->
    <title>icon-people-plus-black</title>
    <desc>Created with Sketch.</desc>
    <g id="Page-1" stroke="none" stroke-width="1" fill="none" fill-rule="evenodd">
        <g id="icon-people-plus-black" fill="#2A303E" fill-rule="nonzero">
            <path d="M4.7002,0.300049 C3.4002,0.300049 2.2002,1.50005 2.2002,2.800049 C2.2002,4.10005 3.4002,5.300049 4.7002,5.300049 C6.0002,5.300049 7.2002,4.10005 7.2002,2.800049 C7.2002,1.40005 6.0002,0.300049 4.7002,0.300049 Z M4.7002,4.30005 C3.9002,4.30005 3.2002,3.60005 3.2002,2.80005 C3.2002,2.00005 3.9002,1.30005 4.7002,1.30005 C5.5002,1.30005 6.2002,2.00005 6.2002,2.80005 C6.2002,3.60005 5.5002,4.30005 4.7002,4.30005 Z" id="Shape"></path>
            <path d="M11.59961,2 C10.2996,2 9.09961,3.2 9.09961,4.5 C9.09961,5.8 10.2996,7 11.59961,7 C12.8996,7 14.09961,5.8 14.09961,4.5 C14.09961,3.2 12.8996,2 11.59961,2 Z M11.5996,6 C10.7996,6 10.0996,5.3 10.0996,4.5 C10.0996,3.7 10.7996,3 11.5996,3 C12.3996,3 13.0996,3.7 13.0996,4.5 C13.0996,5.3 12.3996,6 11.5996,6 Z" id="Shape"></path>
            <path d="M4.49961,6.30005 C2.19961,6.30005 0.0996094,8.30005 0.0996094,12.3 C0.0996094,13.7 2.29961,14.4 4.49961,14.4 C6.69961,14.4 8.89961,13.7 8.89961,12.3 C8.89961,8.30005 6.79961,6.30005 4.49961,6.30005 Z M4.49961,13.3 C2.49961,13.3 1.09961,12.7 1.09961,12.2 C1.09961,9.20005 2.39961,7.20005 4.49961,7.20005 C6.59961,7.20005 7.89961,9.20005 7.89961,12.2 C7.89961,12.7 6.59961,13.3 4.49961,13.3 Z" id="Shape"></path>
            <path d="M13,11.3 L12,11.3 L12,10.2 C12,9.99995 11.8,9.69995 11.5,9.69995 C11.3,9.69995 11,9.89995 11,10.2 L11,11.3 L10,11.3 C9.8,11.3 9.5,11.5 9.5,11.8 C9.5,12 9.7,12.2 10,12.2 L11,12.2 L11,13.3 C11,13.5 11.2,13.8 11.5,13.8 C11.7,13.8 12,13.6 12,13.3 L12,12.2 L13,12.2 C13.2,12.2 13.4,12 13.4,11.8 C13.5,11.5 13.3,11.3 13,11.3 Z" id="Path"></path>
            <path d="M11.5004,7.6001 C10.8004,7.6001 10.1004,7.8001 9.5004,8.2001 C9.6004,8.4001 9.7004,8.7001 9.8004,9.0001 L10.7004,8.6001 C10.9004,8.5001 11.2004,8.5001 11.4004,8.5001 C13.4004,8.5001 14.8004,10.5001 14.8004,13.5001 C14.8004,13.6001 14.7004,13.7001 14.6004,13.8001 C14.4004,13.9001 14.3004,14.0001 14.1004,14.1001 C13.5004,14.4001 12.8004,14.5001 12.2004,14.5001 C11.7004,14.5001 11.1004,14.5001 10.6004,14.4001 C10.0004,14.3001 9.5004,14.2001 8.9004,14.1001 C8.7004,14.1001 8.5004,14.1001 8.3004,14.2001 C8.1004,14.3001 8.0004,14.3001 7.9004,14.4001 L7.8004,14.5001 C7.7004,14.8001 8.0004,14.9001 8.1004,15.0001 C8.6004,15.2001 9.2004,15.4001 9.7004,15.5001 C10.5004,15.7001 11.4004,15.7001 12.2004,15.6001 C12.3004,15.6001 12.5004,15.6001 12.6004,15.6001 C13.3004,15.5001 13.9004,15.4001 14.6004,15.1001 C15.1004,14.9001 15.5004,14.6001 15.7004,14.1001 C15.8004,13.9001 15.8004,13.8001 15.8004,13.6001 C15.8004,9.6001 13.8004,7.6001 11.5004,7.6001 Z" id="Path"></path>
        </g>
    </g>
</svg>