<?xml version="1.0" encoding="UTF-8"?>
<svg width="32px" height="32px" viewBox="0 0 32 32" version="1.1" xmlns="http://www.w3.org/2000/svg" xmlns:xlink="http://www.w3.org/1999/xlink">
    <!-- Generator: Sketch 59.1 (86144) - https://sketch.com -->
    <title>icon-chart-white</title>
    <desc>Created with Sketch.</desc>
    <g id="Page-1" stroke="none" stroke-width="1" fill="none" fill-rule="evenodd">
        <g id="icon-chart-white" fill="#FEFEFE" fill-rule="nonzero">
            <path d="M16,16 L16,0 C7.2,0 0,7.2 0,16 C0,24.8 7.2,32 16,32 C21.2,32 25.7,29.5 28.7,25.8 L16,16 Z M16,30 C8.3,30 2,23.7 2,16 C2,9 7.2,3.1 14,2.1 L14,16 C14,16.6 14.3,17.2 14.8,17.6 L25.8,26.1 C23.1,28.6 19.7,30 16,30 Z" id="Shape"></path>
            <path d="M20.8,2.90005 C26.2,4.80005 30,10 30,16 C30,17.4 29.8,18.9001 29.3,20.2001 L20.7001,13.6 L20.7001,2.90005 L20.8,2.90005 Z M18.8,0.300049 L18.8,14.6 L30.2001,23.4 C31.4001,21.2 32,18.7 32,16 C32,8.10005 26.3,1.60005 18.8,0.300049 Z" id="Shape"></path>
        </g>
    </g>
</svg>